<?xml version="1.0" encoding="utf-8"?>
<!-- Generator: Adobe Illustrator 16.0.0, SVG Export Plug-In . SVG Version: 6.00 Build 0)  -->
<!DOCTYPE svg PUBLIC "-//W3C//DTD SVG 1.1//EN" "http://www.w3.org/Graphics/SVG/1.1/DTD/svg11.dtd">
<svg version="1.1" id="Layer_1" xmlns="http://www.w3.org/2000/svg" xmlns:xlink="http://www.w3.org/1999/xlink" x="0px" y="0px"
	 width="20px" height="20px" viewBox="0 0 20 20" enable-background="new 0 0 20 20" xml:space="preserve">
<path fill-rule="evenodd" clip-rule="evenodd" fill="#333333" d="M10.003,0.5c5.22,0.001,9.485,4.26,9.497,9.486
	c0.013,5.237-4.307,9.546-9.537,9.514c-5.233-0.033-9.48-4.306-9.463-9.52C0.517,4.752,4.78,0.499,10.003,0.5z M10.758,9.971
	c-0.155,0.174-0.25,0.292-0.355,0.397c-1.073,1.075-2.151,2.143-3.218,3.223c-0.568,0.576-0.565,0.94-0.01,1.518
	c0.289,0.301,0.584,0.598,0.886,0.887c0.571,0.546,0.946,0.548,1.52-0.021c1.731-1.722,3.458-3.449,5.18-5.181
	c0.615-0.617,0.609-0.979-0.021-1.612c-1.475-1.481-2.955-2.957-4.432-4.436C8.8,3.24,8.8,3.24,7.294,4.765
	C6.582,5.487,6.579,5.799,7.297,6.519C8.43,7.655,9.569,8.786,10.758,9.971z"/>
</svg>
